<svg width="17" height="16" viewBox="0 0 10 12" fill="none" xmlns="http://www.w3.org/2000/svg">
    <path d="M6.85001 3.39999C6.85001 2.78749 6.50001 2.21874 5.97501 1.89062C5.42814 1.58437 4.75001 1.58437 4.22501 1.89062C3.67814 2.21874 3.35001 2.78749 3.35001 3.39999C3.35001 4.03437 3.67814 4.60312 4.22501 4.93124C4.75001 5.23749 5.42814 5.23749 5.97501 4.93124C6.50001 4.60312 6.85001 4.03437 6.85001 3.39999ZM2.30001 3.39999C2.30001 2.41562 2.82501 1.49687 3.70001 0.993744C4.55314 0.490619 5.62501 0.490619 6.50001 0.993744C7.35314 1.49687 7.90001 2.41562 7.90001 3.39999C7.90001 4.40624 7.35314 5.32499 6.50001 5.82812C5.62501 6.33124 4.55314 6.33124 3.70001 5.82812C2.82501 5.32499 2.30001 4.40624 2.30001 3.39999ZM1.27189 10.75H8.90626C8.70939 9.37187 7.52814 8.29999 6.08439 8.29999H4.09376C2.65001 8.29999 1.46876 9.37187 1.27189 10.75ZM0.200012 11.1656C0.200012 8.99999 1.92814 7.24999 4.09376 7.24999H6.08439C8.25001 7.24999 10 8.99999 10 11.1656C10 11.5156 9.69376 11.8 9.34376 11.8H0.834387C0.484387 11.8 0.200012 11.5156 0.200012 11.1656Z" fill="white"/>
</svg>
