<svg width="19" height="18" viewBox="0 0 16 16" fill="none" xmlns="http://www.w3.org/2000/svg">
    <path fill-rule="evenodd" clip-rule="evenodd" d="M7.99998 0.833282C6.6297 0.833282 5.31553 1.37763 4.3466 2.34656C3.37766 3.3155 2.83332 4.62966 2.83332 5.99995V6.46928C2.83328 6.93388 2.69572 7.38807 2.43798 7.77462L1.67332 8.92328C0.783982 10.2566 1.46265 12.0686 3.00865 12.49C3.51198 12.6273 4.01998 12.7433 4.53131 12.8386L4.53265 12.8419C5.04465 14.2099 6.41465 15.1666 7.99998 15.1666C9.58531 15.1666 10.9553 14.2099 11.468 12.8419L11.4693 12.8386C11.9814 12.7433 12.4894 12.627 12.992 12.49C14.538 12.0686 15.2166 10.2566 14.3273 8.92328L13.562 7.77462C13.3042 7.38807 13.1667 6.93388 13.1666 6.46928V5.99995C13.1666 4.62966 12.6223 3.3155 11.6534 2.34656C10.6844 1.37763 9.37027 0.833282 7.99998 0.833282ZM10.2506 13.0246C8.7553 13.2033 7.244 13.2033 5.74865 13.0246C6.22265 13.7053 7.04732 14.1666 7.99998 14.1666C8.95265 14.1666 9.77665 13.7053 10.2506 13.0246ZM3.83332 5.99995C3.83332 4.89488 4.2723 3.83507 5.0537 3.05367C5.8351 2.27227 6.89491 1.83328 7.99998 1.83328C9.10505 1.83328 10.1649 2.27227 10.9463 3.05367C11.7277 3.83507 12.1666 4.89488 12.1666 5.99995V6.46928C12.1666 7.13128 12.3626 7.77862 12.73 8.32928L13.4953 9.47795C13.6139 9.65555 13.6886 9.85882 13.7131 10.071C13.7377 10.2831 13.7114 10.498 13.6365 10.698C13.5616 10.898 13.4402 11.0774 13.2824 11.2212C13.1245 11.365 12.9347 11.4693 12.7286 11.5253C9.63252 12.3697 6.36678 12.3697 3.27065 11.5253C3.06476 11.4691 2.87516 11.3648 2.71747 11.221C2.55978 11.0772 2.43851 10.898 2.36365 10.6981C2.28878 10.4983 2.26247 10.2835 2.28686 10.0715C2.31126 9.85943 2.38568 9.65624 2.50398 9.47862L3.27065 8.32928C3.63767 7.77841 3.83345 7.13123 3.83332 6.46928V5.99995Z" fill="white"/>
</svg>
