<svg width="24" height="20" viewBox="0 0 24 20" fill="none" xmlns="http://www.w3.org/2000/svg">
    <path fill-rule="evenodd" clip-rule="evenodd" d="M9.70516 0.015625H14.2952C16.3469 0.015625 17.9722 0.0156251 19.2436 0.186413C20.5519 0.362782 21.6112 0.73338 22.4473 1.56834C23.2822 2.40442 23.6528 3.46375 23.8292 4.77201C23.9297 5.52326 23.971 6.39729 23.9877 7.40974C24.0023 7.49459 24.0038 7.58117 23.9922 7.66648C24 8.29828 24 8.98143 24 9.7204V9.84542C24 11.8971 24 13.5224 23.8292 14.7938C23.6528 16.1021 23.2822 17.1614 22.4473 17.9975C21.6112 18.8324 20.5519 19.203 19.2436 19.3794C17.9711 19.5502 16.3469 19.5502 14.2952 19.5502H9.70516C7.65348 19.5502 6.0282 19.5502 4.75678 19.3794C3.44852 19.203 2.38919 18.8324 1.55311 17.9975C0.718148 17.1614 0.347549 16.1021 0.17118 14.7938C0.000392137 13.5213 0.000392134 11.8971 0.000392134 9.84542V9.7204C0.000392134 8.98143 0.000392099 8.29828 0.00820593 7.66648C-0.00376227 7.58123 -0.00263295 7.49465 0.0115547 7.40974C0.0294149 6.39729 0.0707166 5.52326 0.17118 4.77201C0.347549 3.46375 0.718148 2.40442 1.55311 1.56834C2.38919 0.73338 3.44852 0.362782 4.75678 0.186413C6.02932 0.0156251 7.65348 0.015625 9.70516 0.015625ZM1.67702 8.38758C1.67478 8.82069 1.67478 9.28506 1.67478 9.78291C1.67478 11.9116 1.67702 13.423 1.83106 14.5717C1.98176 15.6935 2.26529 16.3409 2.73746 16.8131C3.20964 17.2853 3.85707 17.5688 4.98003 17.7195C6.12755 17.8736 7.63897 17.8758 9.76767 17.8758H14.2327C16.3614 17.8758 17.874 17.8736 19.0215 17.7195C20.1433 17.5688 20.7908 17.2853 21.2629 16.8131C21.7351 16.3409 22.0186 15.6935 22.1693 14.5705C22.3234 13.423 22.3256 11.9116 22.3256 9.78291C22.3256 9.28506 22.3256 8.82069 22.3234 8.38758H1.67702ZM22.2966 6.71319H1.70381C1.72613 6.05795 1.76408 5.492 1.83106 4.99415C1.98176 3.87231 2.26529 3.22488 2.73746 2.7527C3.20964 2.28052 3.85707 1.99699 4.98003 1.84629C6.12755 1.69225 7.63897 1.69002 9.76767 1.69002H14.2327C16.3614 1.69002 17.874 1.69225 19.0215 1.84629C20.1433 1.99699 20.7908 2.28052 21.2629 2.7527C21.7351 3.22488 22.0186 3.87231 22.1693 4.99527C22.2363 5.492 22.2743 6.05795 22.2966 6.71319ZM4.46544 14.248C4.46544 14.0259 4.55364 13.813 4.71064 13.656C4.86765 13.499 5.08059 13.4108 5.30263 13.4108H9.76767C9.98971 13.4108 10.2027 13.499 10.3597 13.656C10.5167 13.813 10.6049 14.0259 10.6049 14.248C10.6049 14.47 10.5167 14.6829 10.3597 14.8399C10.2027 14.9969 9.98971 15.0851 9.76767 15.0851H5.30263C5.08059 15.0851 4.86765 14.9969 4.71064 14.8399C4.55364 14.6829 4.46544 14.47 4.46544 14.248ZM11.7211 14.248C11.7211 14.0259 11.8093 13.813 11.9663 13.656C12.1233 13.499 12.3363 13.4108 12.5583 13.4108H14.2327C14.4548 13.4108 14.6677 13.499 14.8247 13.656C14.9817 13.813 15.0699 14.0259 15.0699 14.248C15.0699 14.47 14.9817 14.6829 14.8247 14.8399C14.6677 14.9969 14.4548 15.0851 14.2327 15.0851H12.5583C12.3363 15.0851 12.1233 14.9969 11.9663 14.8399C11.8093 14.6829 11.7211 14.47 11.7211 14.248Z" fill="#97847D"/>
</svg>
