<svg width="17" height="16" viewBox="0 0 17 16" fill="none" xmlns="http://www.w3.org/2000/svg">
    <path d="M13.2812 0.96875L15.7812 3.46875C16.0625 3.78125 16.0625 4.25 15.7812 4.53125L13.2812 7.03125C12.9688 7.34375 12.5 7.34375 12.2188 7.03125C11.9062 6.75 11.9062 6.28125 12.2188 5.96875L13.4375 4.75H11C10.5938 4.75 10.2188 4.9375 10 5.25L8.5625 7.1875L7.625 5.9375L8.78125 4.375C9.3125 3.65625 10.125 3.25 11 3.25H13.4375L12.2188 2.03125C11.9062 1.75 11.9062 1.28125 12.2188 1C12.5 0.6875 12.9688 0.6875 13.25 1L13.2812 0.96875ZM6.375 10.0938L5.1875 11.6562C4.65625 12.3438 3.84375 12.75 3 12.75H0.75C0.3125 12.75 0 12.4375 0 12C0 11.5938 0.3125 11.25 0.75 11.25H3C3.375 11.25 3.75 11.0938 4 10.75L5.4375 8.84375L6.375 10.0938ZM12.2188 8.96875C12.5 8.6875 12.9688 8.6875 13.25 8.96875L15.75 11.4688C16.0625 11.7812 16.0625 12.25 15.75 12.5312L13.25 15.0312C12.9688 15.3438 12.5 15.3438 12.2188 15.0312C11.9062 14.75 11.9062 14.2812 12.2188 13.9688L13.4375 12.75H11C10.125 12.75 9.3125 12.3438 8.78125 11.6562L4 5.25C3.75 4.9375 3.375 4.75 3 4.75H0.75C0.3125 4.75 0 4.4375 0 4C0 3.59375 0.3125 3.25 0.75 3.25H3C3.84375 3.25 4.65625 3.65625 5.1875 4.375L10 10.75C10.2188 11.0938 10.5938 11.25 11 11.25H13.4375L12.2188 10.0312C11.9062 9.75 11.9062 9.28125 12.2188 9V8.96875Z" fill="#A63609"/>
</svg>
