<svg width="22" height="16" viewBox="0 0 22 16" fill="none" xmlns="http://www.w3.org/2000/svg">
    <g clip-path="url(#clip0_2_25229)">
        <path d="M0 0H21.3333V16H0V0Z" fill="white"/>
        <path d="M0 0H21.3333V4.8H0V0Z" fill="black"/>
        <path d="M0 11.2H21.3333V16H0V11.2Z" fill="#006600"/>
        <path d="M7.80667 12.75L7.98667 12.85L12.6567 4.74999C12.9267 4.68999 13.0767 4.42999 13.2267 4.16999C13.3267 3.98999 13.7267 3.29999 13.8967 2.39999C13.4222 2.82158 13.0202 3.31819 12.7067 3.86999C12.5567 4.12999 12.4067 4.38999 12.4767 4.65999L7.80667 12.75Z" fill="black" stroke="black" stroke-width="0.655367" stroke-miterlimit="10"/>
        <path d="M7.80667 12.75L7.98667 12.85L12.6567 4.74999C12.9267 4.68999 13.0767 4.42999 13.2267 4.16999C13.3267 3.98999 13.7267 3.29999 13.8967 2.39999C13.4222 2.82158 13.0202 3.31819 12.7067 3.86999C12.5567 4.12999 12.4067 4.38999 12.4767 4.65999L7.80667 12.75Z" fill="white"/>
        <path d="M13.5267 12.75L13.3467 12.85L8.67667 4.74999C8.40667 4.68999 8.25667 4.42999 8.10667 4.16999C8.00667 3.98999 7.60667 3.29999 7.43667 2.39999C7.9111 2.82158 8.31311 3.31819 8.62667 3.86999C8.77667 4.12999 8.92667 4.38999 8.85667 4.65999L13.5267 12.75Z" fill="black" stroke="black" stroke-width="0.655367" stroke-miterlimit="10"/>
        <path d="M13.5267 12.75L13.3467 12.85L8.67667 4.74999C8.40667 4.68999 8.25667 4.42999 8.10667 4.16999C8.00667 3.98999 7.60667 3.29999 7.43667 2.39999C7.9111 2.82158 8.31311 3.31819 8.62667 3.86999C8.77667 4.12999 8.92667 4.38999 8.85667 4.65999L13.5267 12.75Z" fill="white"/>
        <path d="M21.35 5.60001H12.5667C12.2667 4.80001 11.2667 3.20001 10.6667 3.20001C10.0667 3.20001 9.06666 4.80001 8.76667 5.60001H-0.00666809V10.4H8.76667C9.06666 11.2 10.0667 12.8 10.6667 12.8C11.2667 12.8 12.2667 11.2 12.5667 10.4H21.35V5.60001Z" fill="#BB0000"/>
        <path d="M12.5667 10.4C12.8667 9.60001 13.0667 8.80001 13.0667 8.00001C13.0667 7.20001 12.8667 6.40001 12.5667 5.60001C12.2667 6.40001 12.0667 7.20001 12.0667 8.00001C12.0667 8.80001 12.2667 9.60001 12.5667 10.4Z" fill="black"/>
        <path d="M8.76666 10.4C8.46666 9.60001 8.26666 8.80001 8.26666 8.00001C8.26666 7.20001 8.46666 6.40001 8.76666 5.60001C9.06666 6.40001 9.26666 7.20001 9.26666 8.00001C9.26666 8.80001 9.06666 9.60001 8.76666 10.4Z" fill="black"/>
        <path d="M10.6667 8.59999C10.8876 8.59999 11.0667 8.33136 11.0667 7.99999C11.0667 7.66862 10.8876 7.39999 10.6667 7.39999C10.4457 7.39999 10.2667 7.66862 10.2667 7.99999C10.2667 8.33136 10.4457 8.59999 10.6667 8.59999Z" fill="white"/>
        <path d="M10.7667 8.58002C10.7667 8.58002 11.1667 9.38002 11.1667 10.68C11.1667 11.98 10.7667 12.78 10.7667 12.78V8.58002Z" fill="white"/>
        <path d="M10.5667 7.42C10.5667 7.42 10.1667 6.62 10.1667 5.32C10.1667 4.02 10.5667 3.22 10.5667 3.22V7.42Z" fill="white"/>
        <path d="M10.5667 8.58002C10.5667 8.58002 10.1667 9.38002 10.1667 10.68C10.1667 11.98 10.5667 12.78 10.5667 12.78V8.58002Z" fill="white"/>
        <path d="M10.7667 7.42C10.7667 7.42 11.1667 6.62 11.1667 5.32C11.1667 4.02 10.7667 3.22 10.7667 3.22V7.42Z" fill="white"/>
    </g>
    <defs>
        <clipPath id="clip0_2_25229">
            <rect width="21.3333" height="16" rx="3.10692" fill="white"/>
        </clipPath>
    </defs>
</svg>
