<svg width="60" height="21" viewBox="0 0 60 21" fill="none" xmlns="http://www.w3.org/2000/svg">
    <path d="M29.2175 10.076L16.1714 10.076C16.3777 7.55442 18.3988 5.57975 20.0958 5.57975H37.1725C37.6498 5.57974 37.915 6.22981 37.5437 6.71737C37.1725 7.20492 30.2782 15.7641 30.2782 15.7641V10.997C30.2782 10.5094 30.013 10.076 29.2175 10.076Z" fill="#A63609"/>
    <path d="M46.2039 5.68808L59.25 5.68809C59.0437 8.20971 57.0226 10.1844 55.3256 10.1844H38.2489C37.7716 10.1844 37.5064 9.53431 37.8777 9.04676C38.2489 8.5592 45.1432 0 45.1432 0V4.76715C45.1432 5.2547 45.4084 5.68808 46.2039 5.68808Z" fill="#F18F15"/>
    <path d="M13.289 16.6032H14.7735L15.4178 19.178L16.2316 16.6032H17.6144L18.4583 19.178L19.1026 16.6032H20.5758L19.1026 20.6905H17.7387L16.9286 18.2312L16.145 20.6905H14.7735L13.289 16.6032Z" fill="#A63609"/>
    <path d="M21.0845 15.0484H22.6179V16.1145H21.0845V15.0484ZM21.0845 16.6032H22.6179V20.6905H21.0845V16.6032Z" fill="#A63609"/>
    <path d="M23.6126 16.6032H25.0481V17.2729C25.1863 16.983 25.3282 16.7841 25.4739 16.6764C25.6221 16.566 25.8042 16.5109 26.0202 16.5109C26.2462 16.5109 26.4937 16.5827 26.7624 16.7264L26.2877 17.8425C26.1068 17.7655 25.9637 17.7271 25.8582 17.7271C25.6572 17.7271 25.5015 17.8117 25.391 17.9811C25.2327 18.2197 25.1536 18.6661 25.1536 19.3204V20.6905H23.6126V16.6032Z" fill="#A63609"/>
    <path d="M31.4683 19.0356H28.3939C28.4215 19.287 28.4881 19.4743 28.5935 19.5975C28.7417 19.7745 28.9352 19.8631 29.1738 19.8631C29.3245 19.8631 29.4677 19.8246 29.6033 19.7476C29.6862 19.6989 29.7754 19.6129 29.8708 19.4897L31.3817 19.6321C31.1506 20.0427 30.8718 20.3377 30.5452 20.5173C30.2187 20.6944 29.7502 20.7829 29.1399 20.7829C28.6099 20.7829 28.1929 20.7072 27.889 20.5558C27.5851 20.4019 27.3326 20.1594 27.1317 19.8284C26.9332 19.4949 26.834 19.1036 26.834 18.6546C26.834 18.0157 27.0337 17.4987 27.4331 17.1036C27.835 16.7084 28.3888 16.5109 29.0947 16.5109C29.6673 16.5109 30.1195 16.5994 30.451 16.7764C30.7826 16.9535 31.035 17.2101 31.2084 17.5462C31.3817 17.8823 31.4683 18.3197 31.4683 18.8586V19.0356ZM29.9085 18.2851C29.8783 17.9824 29.798 17.7655 29.6674 17.6347C29.5392 17.5038 29.3697 17.4384 29.1587 17.4384C28.9151 17.4384 28.7204 17.5372 28.5747 17.7348C28.4818 17.8579 28.4227 18.0414 28.3976 18.2851H29.9085Z" fill="#A63609"/>
    <path d="M0.75 16.6032H2.23449L2.87877 19.178L3.6926 16.6032H5.07536L5.91933 19.178L6.56361 16.6032H8.0368L6.56361 20.6905H5.19969L4.38963 18.2312L3.60594 20.6905H2.23449L0.75 16.6032Z" fill="#A63609"/>
    <path d="M12.9311 19.0356H9.85661C9.88424 19.287 9.9508 19.4743 10.0563 19.5975C10.2045 19.7745 10.3979 19.8631 10.6365 19.8631C10.7872 19.8631 10.9304 19.8246 11.0661 19.7476C11.1489 19.6989 11.2381 19.6129 11.3336 19.4897L12.8444 19.6321C12.6133 20.0427 12.3345 20.3377 12.008 20.5173C11.6814 20.6944 11.213 20.7829 10.6026 20.7829C10.0726 20.7829 9.65566 20.7072 9.35173 20.5558C9.0478 20.4019 8.79537 20.1594 8.59442 19.8284C8.39599 19.4949 8.29677 19.1036 8.29677 18.6546C8.29677 18.0157 8.49646 17.4987 8.89584 17.1036C9.29773 16.7084 9.85159 16.5109 10.5574 16.5109C11.1301 16.5109 11.5822 16.5994 11.9138 16.7764C12.2454 16.9535 12.4978 17.2101 12.6711 17.5462C12.8444 17.8823 12.9311 18.3197 12.9311 18.8586V19.0356ZM11.3712 18.2851C11.3411 17.9824 11.2607 17.7655 11.1301 17.6347C11.002 17.5038 10.8325 17.4384 10.6215 17.4384C10.3778 17.4384 10.1831 17.5372 10.0375 17.7348C9.94452 17.8579 9.8855 18.0414 9.86038 18.2851H11.3712Z" fill="#A63609"/>
    <path d="M33.5217 20.1978L35.643 14.5557H36.4304L38.6911 20.1978H37.8584L37.2141 18.489H34.9045L34.2979 20.1978H33.5217ZM35.1155 17.8809H36.988L36.4116 16.3184C36.2357 15.8437 36.1051 15.4537 36.0197 15.1484C35.9494 15.5101 35.8502 15.8693 35.7221 16.226L35.1155 17.8809Z" fill="black"/>
    <path d="M39.3504 20.1978V16.6493H38.7513V16.1105H39.3504V15.6756C39.3504 15.4011 39.3743 15.1971 39.422 15.0637C39.4873 14.8841 39.6016 14.7391 39.7649 14.6288C39.9306 14.5159 40.1617 14.4595 40.4581 14.4595C40.649 14.4595 40.86 14.4825 41.0911 14.5287L40.9894 15.133C40.8487 15.1073 40.7156 15.0945 40.59 15.0945C40.384 15.0945 40.2383 15.1394 40.1529 15.2292C40.0675 15.319 40.0248 15.487 40.0248 15.7334V16.1105H40.8048V16.6493H40.0248V20.1978H39.3504Z" fill="black"/>
    <path d="M41.3285 20.1978V16.1105H41.9388V16.7302C42.0946 16.4402 42.2377 16.2491 42.3684 16.1567C42.5015 16.0643 42.6472 16.0182 42.8054 16.0182C43.034 16.0182 43.2663 16.0926 43.5024 16.2414L43.2688 16.8841C43.1031 16.784 42.9373 16.734 42.7715 16.734C42.6233 16.734 42.4902 16.7802 42.3721 16.8726C42.2541 16.9624 42.1699 17.0881 42.1197 17.2497C42.0443 17.496 42.0067 17.7655 42.0067 18.058V20.1978H41.3285Z" fill="black"/>
    <path d="M43.9094 15.3523V14.5557H44.5876V15.3523H43.9094ZM43.9094 20.1978V16.1105H44.5876V20.1978H43.9094Z" fill="black"/>
    <path d="M48.2347 18.7007L48.9016 18.7892C48.8288 19.2587 48.6416 19.6269 48.3402 19.8938C48.0413 20.158 47.6733 20.2902 47.2363 20.2902C46.6887 20.2902 46.2479 20.108 45.9138 19.7437C45.5822 19.3768 45.4165 18.8521 45.4165 18.1696C45.4165 17.7283 45.488 17.3421 45.6312 17.0111C45.7744 16.6801 45.9917 16.4325 46.283 16.2683C46.5769 16.1016 46.8959 16.0182 47.24 16.0182C47.6746 16.0182 48.03 16.1311 48.3063 16.3568C48.5826 16.5801 48.7597 16.8982 48.8376 17.3113L48.1782 17.4152C48.1154 17.1407 48.0036 16.9341 47.8429 16.7956C47.6846 16.657 47.4925 16.5878 47.2664 16.5878C46.9248 16.5878 46.6473 16.7135 46.4337 16.9649C46.2202 17.2138 46.1135 17.6089 46.1135 18.1503C46.1135 18.6994 46.2165 19.0984 46.4224 19.3473C46.6284 19.5961 46.8972 19.7206 47.2287 19.7206C47.495 19.7206 47.7173 19.6372 47.8956 19.4704C48.074 19.3036 48.187 19.0471 48.2347 18.7007Z" fill="black"/>
    <path d="M52.0929 19.6936C51.8417 19.9117 51.5993 20.0657 51.3657 20.1555C51.1346 20.2453 50.886 20.2902 50.6197 20.2902C50.1801 20.2902 49.8423 20.1811 49.6062 19.963C49.3701 19.7424 49.252 19.4614 49.252 19.1202C49.252 18.9201 49.296 18.7379 49.3839 18.5737C49.4743 18.4069 49.5911 18.2735 49.7343 18.1734C49.88 18.0733 50.0432 17.9977 50.2241 17.9463C50.3572 17.9104 50.5582 17.8758 50.8269 17.8424C51.3745 17.7757 51.7776 17.6962 52.0364 17.6038C52.0389 17.5089 52.0401 17.4486 52.0401 17.4229C52.0401 17.1407 51.9761 16.9418 51.848 16.8264C51.6747 16.6699 51.4172 16.5916 51.0756 16.5916C50.7566 16.5916 50.5205 16.6493 50.3673 16.7648C50.2165 16.8777 50.1048 17.0791 50.0319 17.369L49.3688 17.2767C49.4291 16.9867 49.5283 16.7533 49.6665 16.5762C49.8046 16.3966 50.0043 16.2593 50.2655 16.1644C50.5268 16.0669 50.8294 16.0182 51.1736 16.0182C51.5152 16.0182 51.7927 16.0592 52.0062 16.1413C52.2197 16.2234 52.3767 16.3273 52.4772 16.4531C52.5777 16.5762 52.648 16.7327 52.6882 16.9226C52.7108 17.0406 52.7221 17.2536 52.7221 17.5615V18.4852C52.7221 19.1292 52.7359 19.5371 52.7635 19.709C52.7937 19.8784 52.8515 20.0413 52.9369 20.1978H52.2285C52.1582 20.0541 52.113 19.8861 52.0929 19.6936ZM52.0364 18.1465C51.7902 18.2491 51.421 18.3363 50.9286 18.4082C50.6498 18.4492 50.4527 18.4954 50.3371 18.5467C50.2216 18.598 50.1324 18.6737 50.0696 18.7738C50.0068 18.8713 49.9754 18.9803 49.9754 19.1009C49.9754 19.2857 50.0432 19.4396 50.1789 19.5628C50.317 19.6859 50.518 19.7475 50.7817 19.7475C51.0429 19.7475 51.2753 19.6898 51.4787 19.5743C51.6822 19.4563 51.8317 19.2959 51.9271 19.0932C51.9999 18.9367 52.0364 18.7058 52.0364 18.4005V18.1465Z" fill="black"/>
</svg>
