<svg width="22" height="16" viewBox="0 0 22 16" fill="none" xmlns="http://www.w3.org/2000/svg">
    <g clip-path="url(#clip0_1_15669)">
        <path fill-rule="evenodd" clip-rule="evenodd" d="M0 0H30.4V1.23127H0V0ZM0 2.4625H30.4V3.69377H0V2.4625ZM0 4.92187H30.4V6.15623H0V4.92187ZM0 7.38437H30.4V8.61563H0V7.38437ZM0 9.84687H30.4V11.0781H0V9.84687ZM0 12.3062H30.4V13.5375H0V12.3062ZM0 14.7687H30.4V16H0V14.7687Z" fill="#BD3D44"/>
        <path fill-rule="evenodd" clip-rule="evenodd" d="M0 1.23126H30.4V2.4625H0V1.23126ZM0 3.69373H30.4V4.92186H0V3.69373ZM0 6.15313H30.4V7.38436H0V6.15313ZM0 8.61563H30.4V9.84686H0V8.61563ZM0 11.0781H30.4V12.3094H0V11.0781ZM0 13.5375H30.4V14.7688H0V13.5375Z" fill="white"/>
        <path fill-rule="evenodd" clip-rule="evenodd" d="M0 0H12.1594V8.61563H0V0Z" fill="#192F5D"/>
        <path fill-rule="evenodd" clip-rule="evenodd" d="M1.0125 0.368774L1.125 0.709341H1.48127L1.19373 0.918741L1.30313 1.26247L1.0125 1.04997L0.724999 1.25934L0.834366 0.918741L0.543766 0.709341H0.906266L1.0125 0.368774ZM3.04063 0.368774L3.15 0.709341H3.50937L3.21873 0.918741L3.32813 1.26247L3.04063 1.04997L2.75 1.25934L2.85937 0.918741L2.57187 0.709341H2.92813L3.04063 0.368774ZM5.06563 0.368774L5.17813 0.709374H5.53127L5.24377 0.918774L5.3531 1.26251L5.0625 1.05001L4.775 1.25937L4.88437 0.918774L4.59373 0.709374H4.95313L5.06563 0.368774ZM7.09377 0.368774L7.2031 0.709374H7.5625L7.27187 0.918774L7.38437 1.26251L7.09373 1.05001L6.80313 1.25937L6.91563 0.918774L6.625 0.709374H6.98127L7.09377 0.368774ZM9.11877 0.368774L9.23127 0.709374H9.5875L9.3 0.918774L9.40937 1.26251L9.11873 1.05001L8.83123 1.25937L8.94063 0.918774L8.65313 0.709374H9.00937L9.11877 0.368774ZM11.1469 0.368774L11.2562 0.709374H11.6156L11.325 0.918774L11.4375 1.26251L11.1469 1.05001L10.8562 1.25937L10.9687 0.918774L10.6781 0.709374H11.0375L11.1469 0.368774ZM2.02813 1.23121L2.1375 1.57187H2.49687L2.20623 1.78121L2.3125 2.12187L2.03123 1.91247L1.74063 2.12184L1.84373 1.78124L1.5625 1.57184H1.91877L2.02813 1.23121ZM4.05313 1.23121L4.16563 1.57187H4.52187L4.23123 1.78121L4.34377 2.12187L4.0531 1.91247L3.7625 2.12184L3.875 1.78124L3.58437 1.57184H3.94373L4.05313 1.23121ZM6.08127 1.23121L6.1906 1.57187H6.55L6.25937 1.78121L6.36873 2.12187L6.08123 1.91247L5.79063 2.12184L5.9 1.78127L5.6125 1.57187H5.96877L6.08127 1.23121ZM8.10627 1.23121L8.21877 1.57187H8.575L8.28437 1.78121L8.39687 2.12187L8.10623 1.91247L7.81873 2.12184L7.92813 1.78124L7.6375 1.57184H8L8.10627 1.23121ZM10.1344 1.23121L10.2437 1.57187H10.6031L10.3125 1.78121L10.4219 2.12187L10.1344 1.91247L9.84373 2.12184L9.95313 1.78124L9.66563 1.57184H10.0219L10.1344 1.23121ZM1.0125 2.09067L1.125 2.43754H1.48127L1.19373 2.64691L1.30313 2.98754L1.0125 2.77504L0.724999 2.98754L0.834366 2.64377L0.543766 2.43444H0.906266L1.0125 2.09067ZM3.04063 2.09067L3.15 2.43434H3.50937L3.21873 2.64371L3.32813 2.98437L3.04063 2.77184L2.75 2.98434L2.85937 2.64061L2.57187 2.43124H2.92813L3.04063 2.09067ZM5.06563 2.09067L5.17813 2.43441H5.53127L5.24377 2.64377L5.3531 2.98444L5.0625 2.77191L4.775 2.98441L4.88437 2.64067L4.59373 2.43131H4.95313L5.06563 2.09067ZM7.09377 2.09067L7.2031 2.43441H7.5625L7.27187 2.64377L7.38437 2.98444L7.09373 2.77191L6.80313 2.98441L6.91563 2.64067L6.625 2.43131H6.98127L7.09377 2.09067ZM9.11877 2.09067L9.23127 2.43441H9.5875L9.3 2.64374L9.40937 2.98441L9.11873 2.77187L8.83123 2.98437L8.94063 2.64064L8.65313 2.43127H9.00937L9.11877 2.09067ZM11.1469 2.09067L11.2562 2.43441H11.6156L11.325 2.64377L11.4375 2.98444L11.1469 2.77191L10.8562 2.98441L10.9687 2.64067L10.6781 2.43131H11.0375L11.1469 2.09067ZM2.02813 2.95314L2.1375 3.29377H2.49687L2.20623 3.50311L2.31563 3.84687L2.02813 3.63437L1.7375 3.84374L1.84687 3.50314L1.55937 3.29377H1.91567L2.02813 2.95314ZM4.05313 2.95314L4.16563 3.29377H4.52187L4.23123 3.50311L4.34377 3.84687L4.0531 3.63437L3.7625 3.84374L3.875 3.50314L3.58437 3.29377H3.94373L4.05313 2.95314ZM6.08127 2.95314L6.1906 3.29377H6.55L6.25937 3.50311L6.36873 3.84687L6.08123 3.63437L5.79063 3.84374L5.9 3.50314L5.6125 3.29377H5.96877L6.08127 2.95314ZM8.10627 2.95314L8.21877 3.29377H8.575L8.2875 3.50311L8.39687 3.84687L8.10623 3.63437L7.81873 3.84374L7.92813 3.50314L7.6375 3.29377H8L8.10627 2.95314ZM10.1344 2.95314L10.2437 3.29377H10.6031L10.3125 3.50311L10.4219 3.84687L10.1344 3.63437L9.84373 3.84374L9.95313 3.50314L9.66563 3.29377H10.0219L10.1344 2.95314ZM1.0125 3.81564L1.125 4.15627H1.48127L1.19373 4.36561L1.30313 4.70937L1.0125 4.49687L0.724999 4.70624L0.834366 4.36564L0.543766 4.15627H0.906266L1.0125 3.81564ZM3.04063 3.81564L3.15 4.15627H3.50937L3.21873 4.36561L3.32813 4.70627L3.04063 4.49687L2.75 4.70624L2.85937 4.36564L2.57187 4.15627H2.92813L3.04063 3.81564ZM5.06563 3.81564L5.17813 4.15627H5.53127L5.24377 4.36561L5.3531 4.70937L5.0625 4.49687L4.775 4.70624L4.88437 4.36564L4.59373 4.15627H4.95313L5.06563 3.81564ZM7.09377 3.81564L7.2031 4.15627H7.5625L7.27187 4.36561L7.38437 4.70937L7.09373 4.49687L6.80313 4.70624L6.91563 4.36564L6.625 4.15627H6.98127L7.09377 3.81564ZM9.11877 3.81564L9.23127 4.15627H9.5875L9.3 4.36561L9.40937 4.70937L9.11873 4.49687L8.83123 4.70624L8.94063 4.36564L8.65313 4.15627H9.00937L9.11877 3.81564ZM11.1469 3.81564L11.2562 4.15627H11.6156L11.325 4.36561L11.4375 4.70937L11.1469 4.49687L10.8562 4.70624L10.9687 4.36564L10.6781 4.15627H11.0375L11.1469 3.81564ZM2.02813 4.67814L2.1375 5.01877H2.49687L2.20623 5.22811L2.31563 5.56877L2.02813 5.35627L1.7375 5.56877L1.84687 5.22501L1.55937 5.01564H1.91567L2.02813 4.67814ZM4.05313 4.67814L4.16563 5.01877H4.52187L4.23123 5.22811L4.34377 5.56877L4.0531 5.35627L3.7625 5.56877L3.875 5.22501L3.58437 5.01564H3.94373L4.05313 4.67814ZM6.08127 4.67814L6.1906 5.01877H6.55L6.25937 5.22811L6.36873 5.56877L6.08123 5.35627L5.79063 5.56877L5.9 5.22501L5.6125 5.01564H5.96877L6.08127 4.67814ZM8.10627 4.67814L8.21877 5.01877H8.575L8.2875 5.22811L8.39687 5.56877L8.10623 5.35627L7.81873 5.56877L7.92813 5.22501L7.6375 5.01564H8L8.10627 4.67814ZM10.1344 4.67814L10.2437 5.01877H10.6031L10.3125 5.22811L10.4219 5.56877L10.1344 5.35627L9.84373 5.56877L9.95313 5.22501L9.66563 5.01564H10.0219L10.1344 4.67814ZM1.0125 5.53751L1.125 5.88127H1.48127L1.19373 6.09061L1.30313 6.42814L1.0125 6.21877L0.724999 6.42811L0.834366 6.08751L0.543766 5.87814H0.906266L1.0125 5.53751ZM3.04063 5.53751L3.15 5.88127H3.50937L3.21873 6.09061L3.33127 6.42814L3.0406 6.21877L2.75 6.42811L2.8625 6.08751L2.57187 5.87814H2.92813L3.04063 5.53751ZM5.06563 5.53751L5.17813 5.88127H5.53127L5.24377 6.09061L5.3531 6.42814L5.0625 6.21877L4.775 6.42811L4.88437 6.08751L4.59373 5.87814H4.95313L5.06563 5.53751ZM7.09377 5.53751L7.2031 5.88127H7.5625L7.27187 6.09061L7.38437 6.42814L7.09373 6.21877L6.80313 6.42811L6.91563 6.08751L6.625 5.87814H6.98127L7.09377 5.53751ZM9.11877 5.53751L9.23127 5.88127H9.5875L9.3 6.09061L9.40937 6.42814L9.11873 6.21877L8.83123 6.42811L8.94063 6.08751L8.65313 5.87814H9.00937L9.11877 5.53751ZM11.1469 5.53751L11.2562 5.88127H11.6156L11.325 6.09061L11.4375 6.42814L11.1469 6.21877L10.8562 6.42811L10.9687 6.08751L10.6781 5.87814H11.0375L11.1469 5.53751ZM2.02813 6.40001L2.1375 6.74064H2.49687L2.20623 6.95001L2.31563 7.29377L2.02813 7.08127L1.7375 7.29061L1.84687 6.95001L1.55937 6.74064H1.91567L2.02813 6.40001ZM4.05313 6.40001L4.16563 6.74064H4.52187L4.23123 6.95001L4.34377 7.29377L4.0531 7.08127L3.7625 7.29061L3.875 6.95001L3.58437 6.74064H3.94373L4.05313 6.40001ZM6.08127 6.40001L6.1906 6.74064H6.55L6.25937 6.95001L6.36873 7.29377L6.08123 7.08127L5.79063 7.29061L5.9 6.95001L5.6125 6.74064H5.96877L6.08127 6.40001ZM8.10627 6.40001L8.21877 6.74064H8.575L8.2875 6.95001L8.39687 7.29377L8.10623 7.08127L7.81873 7.29061L7.92813 6.95001L7.6375 6.74064H8L8.10627 6.40001ZM10.1344 6.40001L10.2437 6.74064H10.6031L10.3125 6.95001L10.4219 7.29377L10.1344 7.08127L9.84373 7.29061L9.95313 6.95001L9.66563 6.74064H10.0219L10.1344 6.40001ZM1.0125 7.26251L1.125 7.60314H1.48127L1.19373 7.81251L1.30313 8.15314L1.0125 7.94377L0.724999 8.15311L0.834366 7.80937L0.543766 7.60001H0.906266L1.0125 7.26251ZM3.04063 7.26251L3.15 7.60314H3.50937L3.21873 7.81251L3.33127 8.15314L3.0406 7.94377L2.75 8.15311L2.8625 7.80937L2.57187 7.60001H2.92813L3.04063 7.26251ZM5.06563 7.26251L5.17813 7.60314H5.53127L5.25 7.81251L5.35937 8.15314L5.06873 7.94377L4.78123 8.15311L4.89063 7.80937L4.6 7.60001H4.95937L5.06563 7.26251ZM7.09377 7.26251L7.2031 7.60314H7.5625L7.27187 7.81251L7.38437 8.15314L7.09373 7.94377L6.80313 8.15311L6.91563 7.80937L6.625 7.60001H6.98127L7.09377 7.26251ZM9.11877 7.26251L9.23127 7.60314H9.5875L9.3 7.81251L9.40937 8.15314L9.11873 7.94377L8.83123 8.15311L8.94063 7.80937L8.65313 7.60001H9.00937L9.11877 7.26251ZM11.1469 7.26251L11.2562 7.60314H11.6156L11.325 7.81251L11.4375 8.15314L11.1469 7.94377L10.8562 8.15311L10.9687 7.80937L10.6781 7.60001H11.0375L11.1469 7.26251Z" fill="white"/>
    </g>
    <defs>
        <clipPath id="clip0_1_15669">
            <rect width="21.3333" height="16" rx="3.10692" fill="white"/>
        </clipPath>
    </defs>
</svg>
