<svg width="22" height="21" viewBox="0 0 22 21" fill="none" xmlns="http://www.w3.org/2000/svg">
    <path d="M3.78125 0.907898H19.5938C20.1523 0.907898 20.625 1.38055 20.625 1.93915C20.625 2.54071 20.1523 2.9704 19.5938 2.9704H3.78125C2.79297 2.9704 2.0625 3.74384 2.0625 4.68915V16.3766C2.0625 17.3649 2.79297 18.0954 3.78125 18.0954H18.2188C19.1641 18.0954 19.9375 17.3649 19.9375 16.3766V8.81415C19.9375 7.86884 19.1641 7.0954 18.2188 7.0954H5.15625C4.55469 7.0954 4.125 6.66571 4.125 6.06415C4.125 5.50555 4.55469 5.0329 5.15625 5.0329H18.2188C20.2812 5.0329 22 6.75165 22 8.81415V16.3766C22 18.4821 20.2812 20.1579 18.2188 20.1579H3.78125C1.67578 20.1579 0 18.4821 0 16.3766V4.68915C0 2.62665 1.67578 0.907898 3.78125 0.907898ZM16.5 13.9704C15.7266 13.9704 15.125 13.3688 15.125 12.5954C15.125 11.8649 15.7266 11.2204 16.5 11.2204C17.2305 11.2204 17.875 11.8649 17.875 12.5954C17.875 13.3688 17.2305 13.9704 16.5 13.9704Z" fill="#53433C"/>
</svg>
